<svg width="195" height="195" viewBox="0 0 195 195" fill="none" xmlns="http://www.w3.org/2000/svg">
<circle opacity="0.3" cx="97.5" cy="97.5" r="97.5" fill="#121212"/>
<path fill-rule="evenodd" clip-rule="evenodd" d="M75.9669 70.4008C75.9669 66.5813 80.9822 64.3666 84.5795 65.8591C88.7005 68.6029 123.744 88.6311 126.914 91.3049C130.083 93.9786 130.992 98.2239 126.698 101.381C122.405 104.538 88.2778 124.922 84.5795 126.692C80.8805 128.462 76.1211 126.054 75.9669 121.574C75.8128 117.095 75.9669 74.2198 75.9669 70.4008ZM81.1444 73.7166C81.1444 74.6918 81.1152 117.843 81.0612 118.731C80.9726 120.187 82.2172 121.65 83.9511 120.782C85.685 119.914 121.528 98.2188 122.951 97.6569C124.375 97.0946 124.281 95.6627 122.951 94.7681C121.622 93.8734 85.1259 72.6835 84.0586 71.7529C82.9913 70.8219 81.1444 72.219 81.1444 73.7166Z" fill="#121212"/>
</svg>
