<svg width="133" height="154" viewBox="0 0 133 154" fill="none" xmlns="http://www.w3.org/2000/svg">
<path d="M73.5948 0C106.348 0 133 26.6059 133 59.3148C133 92.0235 106.348 118.67 73.5948 118.67C62.4906 118.67 52.1205 115.546 43.215 110.223C42.1211 111.512 40.7008 113.203 39.031 115.229C35.5517 119.45 31.0783 124.92 26.6911 130.337C17.9168 141.173 9.42947 151.774 9.42947 151.774C9.02553 152.357 8.50593 152.85 7.90298 153.224C7.30004 153.597 6.62661 153.843 5.92455 153.945C5.22248 154.048 4.50679 154.006 3.82193 153.82C3.13707 153.635 2.49768 153.311 1.94348 152.868C1.38928 152.426 0.932111 151.875 0.600388 151.248C0.268665 150.622 0.0694723 149.934 0.0151825 149.227C-0.0391073 148.521 0.0526676 147.811 0.284805 147.141C0.516943 146.472 0.884487 145.857 1.36459 145.335C1.36459 145.335 9.87255 134.718 18.6667 123.858C23.0638 118.428 27.5315 112.933 31.047 108.668C32.5357 106.862 33.721 105.427 34.7964 104.147C22.1937 93.2519 14.1593 77.2141 14.1592 59.3148C14.1593 26.6059 40.8418 0 73.5948 0ZM73.5948 10.3351C46.4348 10.3351 24.5183 32.1915 24.5183 59.3148C24.5183 86.4382 46.4348 108.325 73.5948 108.325C100.755 108.325 122.681 86.4382 122.681 59.3148C122.681 32.1915 100.755 10.3351 73.5948 10.3351Z" fill="#121212"/>
</svg>
