<svg width="16" height="17" viewBox="0 0 16 17" fill="none" xmlns="http://www.w3.org/2000/svg">
<path d="M14 7.13636C14 11.9091 8 16 8 16C8 16 2 11.9091 2 7.13636C2 5.5089 2.63214 3.94809 3.75736 2.7973C4.88258 1.64651 6.4087 1 8 1C9.5913 1 11.1174 1.64651 12.2426 2.7973C13.3679 3.94809 14 5.5089 14 7.13636Z" stroke="#666666" stroke-linecap="round" stroke-linejoin="round"/>
<path d="M8 9C9.10457 9 10 8.10457 10 7C10 5.89543 9.10457 5 8 5C6.89543 5 6 5.89543 6 7C6 8.10457 6.89543 9 8 9Z" stroke="#666666" stroke-linecap="round" stroke-linejoin="round"/>
</svg>
