<svg width="209" height="26" viewBox="0 0 209 26" fill="none" xmlns="http://www.w3.org/2000/svg">
<path d="M26.2764 4.08001C27.996 6.032 28.6107 8.952 28.245 13.264C27.8482 17.84 26.8211 20.68 24.9069 22.48C22.845 24.424 19.5381 25.328 14.5038 25.328C9.46951 25.328 6.15482 24.424 4.10064 22.48C2.18653 20.68 1.15166 17.84 0.754829 13.264C0.381342 8.944 1.0116 6.064 2.73119 4.08001C4.76203 1.78401 8.48133 0.664 14.5038 0.664C20.5263 0.664 24.2456 1.78401 26.2764 4.08001ZM14.5038 0C2.49777 0 -0.661307 4.488 0.109008 13.32C0.879324 22.152 3.99949 26 14.5038 26C25.0081 26 28.1205 22.152 28.8908 13.352C29.6611 4.552 26.5098 0.032 14.5038 0.032" fill="#0B457F"/>
<path d="M14.5 1.5C3.78556 1.5 0.902088 5.44511 1.59783 13.288C2.29357 21.1309 5.09201 24.5 14.5 24.5C23.908 24.5 26.7064 21.1151 27.4022 13.288C28.0979 5.46089 25.2144 1.5 14.5 1.5ZM19.9113 3.29897C17.8164 8.63276 15.505 13.5563 14.7551 15.1816C14.7335 15.2323 14.6978 15.2755 14.6524 15.3058C14.6071 15.3361 14.5542 15.3522 14.5 15.3522C14.4458 15.3522 14.3929 15.3361 14.3476 15.3058C14.3022 15.2755 14.2665 15.2323 14.2449 15.1816C13.4718 13.6036 11.1527 8.63276 9.08866 3.29897C9.08263 3.28349 9.07993 3.26689 9.08063 3.25026C9.08132 3.23362 9.08542 3.21732 9.09276 3.20243C9.10003 3.18753 9.11031 3.17438 9.12299 3.16382C9.13559 3.15327 9.1502 3.14555 9.16597 3.14117C12.6934 2.52041 16.2989 2.52041 19.8263 3.14117C19.8427 3.14463 19.8582 3.15168 19.8718 3.16185C19.8852 3.17201 19.8964 3.18504 19.9045 3.20005C19.9126 3.21505 19.9174 3.23167 19.9185 3.24874C19.9198 3.26582 19.9173 3.28296 19.9113 3.29897ZM2.74194 13.1696C2.42499 9.52436 2.9352 7.09417 4.35761 5.50823C5.26672 4.56149 6.40588 3.87806 7.65853 3.52779C7.67546 3.52112 7.69386 3.51892 7.71187 3.5214C7.72988 3.52387 7.74696 3.53094 7.76165 3.54194C7.77626 3.55295 7.78793 3.56755 7.79559 3.58438C7.80324 3.60121 7.80664 3.61974 7.80541 3.63825V10.8026C7.80432 11.9936 8.09677 13.1657 8.65576 14.2111L13.4023 23.1113C13.4115 23.1292 13.4161 23.1492 13.4156 23.1694C13.4152 23.1896 13.4096 23.2094 13.3996 23.2268C13.3895 23.2442 13.3752 23.2587 13.3581 23.2688C13.341 23.279 13.3216 23.2845 13.3018 23.2849C9.59888 23.1508 7.11739 22.3933 5.5713 20.9178C4.0252 19.4424 3.113 17.0358 2.76513 13.1539L2.74194 13.1696ZM26.2735 13.1539C25.9334 17.0358 25.0676 19.466 23.4751 20.9178C21.8826 22.3696 19.4243 23.135 15.7446 23.2849C15.7244 23.2878 15.7039 23.2848 15.6852 23.2763C15.6666 23.2679 15.6508 23.2541 15.6394 23.2368C15.6281 23.2195 15.6218 23.1993 15.6213 23.1785C15.6208 23.1576 15.6259 23.1371 15.6364 23.1192L20.3906 14.2111C20.9496 13.1657 21.2421 11.9936 21.241 10.8026V3.63825C21.2397 3.61974 21.2431 3.60121 21.2508 3.58438C21.2584 3.56755 21.2701 3.55295 21.2847 3.54194C21.2994 3.53094 21.3165 3.52387 21.3345 3.5214C21.3525 3.51892 21.3709 3.52112 21.3879 3.52779C22.6397 3.88015 23.7783 4.56328 24.6888 5.50823C26.1112 7.08628 26.6214 9.52436 26.2967 13.1696" fill="#0B457F"/>
<path d="M43.584 18C39.456 18 37 16.6191 37 12.4132C37 8.59397 39.456 7 43.688 7H48.96V9.84864H43.976C42.008 9.84864 41.36 10.401 41.36 12.4132C41.36 14.6227 42.008 15.1514 44.072 15.1514H49V18H43.584Z" fill="#0B457F"/>
<path d="M65 7V18H60.8183V13.8651H56.1897V18H52V7H56.1897V10.906H60.8183V7H65Z" fill="#0B457F"/>
<path d="M67 18L71.437 7.01748H75.1228C75.4557 6.96498 75.7964 7.03156 76.0876 7.20582C76.378 7.38017 76.601 7.65161 76.7179 7.9742L81 18H76.6637L73.9071 11.2318C73.7135 10.7495 73.4348 10.7495 73.2412 11.2318L70.5155 18H67Z" fill="#0B457F"/>
<path d="M91.9601 17.3893L86.7784 12.5895C86.5668 12.3925 86.4257 12.4477 86.4257 12.7472V17.9568H83V7.00946H85.1636C85.768 6.95563 86.3692 7.13288 86.849 7.50599L92.2266 12.4871C92.4382 12.6762 92.5794 12.5422 92.5794 12.3137V7.00946H95.9972V17.4682C96.005 17.5393 95.9964 17.6113 95.9721 17.6787C95.9486 17.7461 95.9102 17.8074 95.86 17.858C95.8098 17.9086 95.7487 17.9473 95.6813 17.9712C95.6146 17.995 95.5425 18.0036 95.472 17.9962H93.669C93.0489 18.0307 92.4382 17.828 91.9601 17.4288" fill="#0B457F"/>
<path d="M111.484 17.9974H105.399C101.174 17.9974 99 16.601 99 12.3961C99 8.64882 101.212 7 105.499 7H111.997V9.83219H105.667C103.646 9.83219 103.118 10.345 103.118 12.3961C103.118 14.6761 103.646 15.2204 105.759 15.2204H108.124C108.162 15.2241 108.198 15.2193 108.234 15.2063C108.269 15.1933 108.301 15.1726 108.327 15.1454C108.353 15.1183 108.374 15.0855 108.386 15.0493C108.399 15.0132 108.403 14.9746 108.4 14.9364V13.9819C108.402 13.944 108.397 13.906 108.384 13.8705C108.371 13.835 108.35 13.8028 108.324 13.7759C108.298 13.749 108.266 13.7282 108.232 13.7148C108.198 13.7013 108.161 13.6956 108.124 13.6978H106.218V11.3311H111.484C111.553 11.3237 111.624 11.3323 111.689 11.3562C111.755 11.3801 111.814 11.4188 111.863 11.4695C111.912 11.5201 111.95 11.5814 111.973 11.649C111.996 11.7165 112.005 11.7884 111.997 11.8597V17.4688C112.005 17.5401 111.996 17.6121 111.973 17.6796C111.95 17.7471 111.912 17.8084 111.863 17.859C111.814 17.9097 111.755 17.9484 111.689 17.9723C111.624 17.9963 111.553 18.0048 111.484 17.9974Z" fill="#0B457F"/>
<path d="M114 17.9606L118.442 7.01742H122.142C122.474 6.96511 122.815 7.03145 123.106 7.20509C123.396 7.37881 123.619 7.64927 123.736 7.97072L128 18H123.666L120.911 11.256C120.718 10.7754 120.439 10.7754 120.245 11.256L117.498 17.9606H114Z" fill="#0B457F"/>
<path d="M139.955 17.3893L134.776 12.5895C134.565 12.3925 134.424 12.4477 134.424 12.7472V17.9568H131V7.00946H133.162C133.767 6.95563 134.367 7.13288 134.847 7.50599L140.222 12.4871C140.425 12.6762 140.574 12.5422 140.574 12.3137V7.00946H143.998V17.4682C144.004 17.5397 143.995 17.6118 143.97 17.6792C143.946 17.7466 143.906 17.8077 143.856 17.8581C143.805 17.9085 143.743 17.947 143.675 17.9709C143.608 17.9948 143.537 18.0035 143.465 17.9962H141.702C141.083 18.0307 140.472 17.828 139.994 17.4288" fill="#0B457F"/>
<path d="M150 17.9606L154.45 7.01742H158.132C158.465 6.96511 158.806 7.03145 159.098 7.20509C159.388 7.37881 159.612 7.64927 159.729 7.97072L164 18H159.659L156.891 11.256C156.705 10.7754 156.426 10.7754 156.233 11.256L153.504 18L150 17.9606Z" fill="#0B457F"/>
<path d="M178 7V13.1239C178 16.9513 175.411 18 171.5 18C167.589 18 165 16.9513 165 13.1239V7H169.142V12.611C169.142 14.7697 170.329 15.2672 171.843 15.2672C173.356 15.2672 174.535 14.7697 174.535 12.611V7H178Z" fill="#0B457F"/>
<path d="M181 7H193V9.95122H189.008V18H184.992V9.95122H181V7Z" fill="#0B457F"/>
<path d="M209 12.9838C209 17.2049 206.503 19 201.5 19C196.497 19 194 17.2049 194 12.9838C194 8.7628 196.585 7 201.5 7C206.415 7 209 8.74663 209 12.9838ZM198.322 12.9838C198.322 15.2156 199.123 16.097 201.524 16.097C203.925 16.097 204.726 15.2156 204.726 12.9838C204.726 10.752 203.925 9.90297 201.524 9.90297C199.123 9.90297 198.322 10.7116 198.322 12.9838Z" fill="#0B457F"/>
</svg>
